HIERARCHY
ROOT hip
{
  OFFSET 31.632 141.092 8.53086
  CHANNELS 6 Xposition Yposition Zposition Zrotation Xrotation Yrotation
  JOINT abdomen
  {
    OFFSET 0 20.6881 -0.73152
    CHANNELS 3 Zrotation Xrotation Yrotation
    JOINT chest
    {
      OFFSET 0 11.7043 -0.48768
      CHANNELS 3 Zrotation Xrotation Yrotation
      JOINT neck
      {
        OFFSET 0 22.1894 -2.19456
        CHANNELS 3 Zrotation Xrotation Yrotation
        JOINT head
        {
          OFFSET -0.24384 7.07133 1.2192
          CHANNELS 3 Zrotation Xrotation Yrotation
          JOINT leftEye
          {
            OFFSET 4.14528 8.04674 8.04672
            CHANNELS 3 Zrotation Xrotation Yrotation
            End Site
            {
              OFFSET 1 0 0
            }
          }
          JOINT rightEye
          {
            OFFSET -3.6576 8.04674 8.04672
            CHANNELS 3 Zrotation Xrotation Yrotation
            End Site
            {
              OFFSET 1 0 0
            }
          }
        }
      }
      JOINT rCollar
      {
        OFFSET -2.68224 19.2634 -4.8768
        CHANNELS 3 Zrotation Xrotation Yrotation
        JOINT rShldr
        {
          OFFSET -8.77824 -1.95073 1.46304
          CHANNELS 3 Zrotation Xrotation Yrotation
          JOINT rForeArm
          {
            OFFSET -28.1742 -1.7115 0.48768
            CHANNELS 3 Zrotation Xrotation Yrotation
            JOINT rHand
            {
              OFFSET -22.5879 0.773209 7.07136
              CHANNELS 3 Zrotation Xrotation Yrotation
              JOINT rThumb1
              {
                OFFSET -1.2192 -0.487915 3.41376
                CHANNELS 3 Zrotation Xrotation Yrotation
                JOINT rThumb2
                {
                  OFFSET -3.37035 -0.52449 3.41376
                  CHANNELS 3 Zrotation Xrotation Yrotation
                  End Site
                  {
                    OFFSET -1.78271 -1.18214 1.43049
                  }
                }
              }
              JOINT rIndex1
              {
                OFFSET -7.75947 0.938293 5.60832
                CHANNELS 3 Zrotation Xrotation Yrotation
                JOINT rIndex2
                {
                  OFFSET -2.54057 -0.884171 1.56538
                  CHANNELS 3 Zrotation Xrotation Yrotation
                  End Site
                  {
                    OFFSET -1.62519 -0.234802 1.16502
                  }
                }
              }
              JOINT rMid1
              {
                OFFSET -8.24714 1.18213 3.41376
                CHANNELS 3 Zrotation Xrotation Yrotation
                JOINT rMid2
                {
                  OFFSET -3.10165 -0.590103 1.0647
                  CHANNELS 3 Zrotation Xrotation Yrotation
                  End Site
                  {
                    OFFSET -2.48547 -0.328903 0.83742
                  }
                }
              }
              JOINT rRing1
              {
                OFFSET -8.82822 0.546677 1.51678
                CHANNELS 3 Zrotation Xrotation Yrotation
                JOINT rRing2
                {
                  OFFSET -2.60934 -0.819778 -0.0198488
                  CHANNELS 3 Zrotation Xrotation Yrotation
                  End Site
                  {
                    OFFSET -2.33842 -0.294052 0.168128
                  }
                }
              }
              JOINT rPinky1
              {
                OFFSET -8.27202 -0.0477905 -0.4584
                CHANNELS 3 Zrotation Xrotation Yrotation
                JOINT rPinky2
                {
                  OFFSET -1.82734 -0.647385 -0.700984
                  CHANNELS 3 Zrotation Xrotation Yrotation
                  End Site
                  {
                    OFFSET -1.69225 -0.51767 -0.607171
                  }
                }
              }
            }
          }
        }
      }
      JOINT lCollar
      {
        OFFSET 2.68224 19.2634 -4.8768
        CHANNELS 3 Zrotation Xrotation Yrotation
        JOINT lShldr
        {
          OFFSET 8.77824 -1.95073 1.46304
          CHANNELS 3 Zrotation Xrotation Yrotation
          JOINT lForeArm
          {
            OFFSET 28.1742 -1.7115 0.48768
            CHANNELS 3 Zrotation Xrotation Yrotation
            JOINT lHand
            {
              OFFSET 22.5879 0.773209 7.07136
              CHANNELS 3 Zrotation Xrotation Yrotation
              JOINT lThumb1
              {
                OFFSET 1.2192 -0.487915 3.41376
                CHANNELS 3 Zrotation Xrotation Yrotation
                JOINT lThumb2
                {
                  OFFSET 3.37035 -0.52449 3.41376
                  CHANNELS 3 Zrotation Xrotation Yrotation
                  End Site
                  {
                    OFFSET 1.78271 -1.18214 1.43049
                  }
                }
              }
              JOINT lIndex1
              {
                OFFSET 7.75947 0.938293 5.60832
                CHANNELS 3 Zrotation Xrotation Yrotation
                JOINT lIndex2
                {
                  OFFSET 2.54057 -0.884171 1.56538
                  CHANNELS 3 Zrotation Xrotation Yrotation
                  End Site
                  {
                    OFFSET 1.62519 -0.234802 1.16502
                  }
                }
              }
              JOINT lMid1
              {
                OFFSET 8.24714 1.18213 3.41376
                CHANNELS 3 Zrotation Xrotation Yrotation
                JOINT lMid2
                {
                  OFFSET 3.10165 -0.590103 1.0647
                  CHANNELS 3 Zrotation Xrotation Yrotation
                  End Site
                  {
                    OFFSET 2.48547 -0.328903 0.83742
                  }
                }
              }
              JOINT lRing1
              {
                OFFSET 8.82822 0.546677 1.51678
                CHANNELS 3 Zrotation Xrotation Yrotation
                JOINT lRing2
                {
                  OFFSET 2.60934 -0.819778 -0.0198488
                  CHANNELS 3 Zrotation Xrotation Yrotation
                  End Site
                  {
                    OFFSET 2.33842 -0.294052 0.168128
                  }
                }
              }
              JOINT lPinky1
              {
                OFFSET 8.27202 -0.0477905 -0.4584
                CHANNELS 3 Zrotation Xrotation Yrotation
                JOINT lPinky2
                {
                  OFFSET 1.82734 -0.647385 -0.700984
                  CHANNELS 3 Zrotation Xrotation Yrotation
                  End Site
                  {
                    OFFSET 1.69225 -0.51767 -0.607171
                  }
                }
              }
            }
          }
        }
      }
    }
  }
  JOINT rButtock
  {
    OFFSET -8.77824 4.35084 1.2192
    CHANNELS 3 Zrotation Xrotation Yrotation
    JOINT rThigh
    {
      OFFSET 0 -1.70687 -2.19456
      CHANNELS 3 Zrotation Xrotation Yrotation
      JOINT rShin
      {
        OFFSET 0 -36.8199 0.73152
        CHANNELS 3 Zrotation Xrotation Yrotation
        JOINT rFoot
        {
          OFFSET 0.73152 -45.1104 -5.12064
          CHANNELS 3 Zrotation Xrotation Yrotation
          End Site
          {
            OFFSET -1.1221 -3.69964 12.103
          }
        }
      }
    }
  }
  JOINT lButtock
  {
    OFFSET 8.77824 4.35084 1.2192
    CHANNELS 3 Zrotation Xrotation Yrotation
    JOINT lThigh
    {
      OFFSET 0 -1.70687 -2.19456
      CHANNELS 3 Zrotation Xrotation Yrotation
      JOINT lShin
      {
        OFFSET 0 -36.8199 0.73152
        CHANNELS 3 Zrotation Xrotation Yrotation
        JOINT lFoot
        {
          OFFSET -0.73152 -45.1104 -5.12064
          CHANNELS 3 Zrotation Xrotation Yrotation
          End Site
          {
            OFFSET 1.1221 -3.69964 12.103
          }
        }
      }
    }
  }
}
MOTION
Frames:	5
Frame Time:	0.00833333
36.3315 85.5069 -174.399 -1.70035 0.00694342 0.0323287 2.23594 -0.000458364 0.0604476 0.615858 0.00897684 0.106601 9.45808e-014 -7.95139e-016 -2.98177e-016 2.84014e-013 3.18055e-015 -9.97029e-016 -0 0 0 -0 0 0 4.75584e-014 -1.86361e-016 4.96962e-017 9.94651e-013 -3.59055e-015 1.19271e-015 1.71061e-011 -5.24016e-012 -2.19458e-013 1.95613e-010 4.40214e-012 -3.14875e-013 4.61458e-010 -1.82505e-012 -1.19589e-012 7.96928e-010 -3.15511e-012 -2.10155e-012 4.61466e-010 -1.82127e-012 -1.21179e-012 7.73091 5.47488 0.417314 4.6146e-010 -1.82425e-012 -1.19907e-012 2.90554 0.965183 0.102902 4.61472e-010 -1.82425e-012 -1.20702e-012 10.2786 0.731801 0.0259123 4.61458e-010 -1.82643e-012 -1.20543e-012 2.22167 -0.733487 -0.20892 4.75632e-014 -1.85196e-016 -1.98785e-016 9.88216e-013 -3.88872e-015 -1.39149e-015 1.70784e-011 4.98393e-012 -2.16278e-013 1.95637e-010 -5.83731e-012 -3.14875e-013 4.61452e-010 -1.85248e-012 -1.20543e-012 7.96911e-010 -3.19646e-012 -2.07531e-012 4.61443e-010 -1.8487e-012 -1.18635e-012 -7.73091 5.47488 -0.417314 4.61449e-010 -1.85188e-012 -1.19907e-012 -2.90554 0.965183 -0.102902 4.61438e-010 -1.85188e-012 -1.19271e-012 -10.2786 0.731801 -0.0259123 4.61453e-010 -1.85228e-012 -1.19271e-012 -2.22167 -0.733487 0.20892 -2.03217e-016 0 -3.88251e-019 2.21094 -7.80166 -0.224195 0.00522516 8.55962 0.13591 -0.548036 -0.766554 0.0461516 2.03217e-016 0 3.88251e-019 1.18446 -1.92859 -0.00254996 0.00908719 -2.07858 0.0749473 0.513196 3.99847 -0.140489 
36.8274 85.0721 -175.606 -1.38771 1.03228 0.198268 1.77917 -2.43359 0.524397 0.337943 1.01733 0.256422 0.0354677 4.95178 -0.465086 1.44726 -7.92196 -0.568634 -0 0 0 -0 0 0 3.37818e-014 4.68287e-014 6.32772e-015 22.0707 3.6485 -2.97028 -2.77925 -1.06976 4.52884 0.0407913 4.48263 0.623048 4.97036e-010 8.90322e-011 -2.58992e-010 8.55114e-010 1.55576e-010 -4.49469e-010 4.97042e-010 8.90395e-011 -2.59007e-010 7.73091 5.47488 0.417314 4.97035e-010 8.90381e-011 -2.58996e-010 2.90554 0.965183 0.102902 4.97048e-010 8.90386e-011 -2.59e-010 10.2786 0.731801 0.0259123 4.97038e-010 8.90368e-011 -2.58998e-010 2.22167 -0.733487 -0.20892 3.37552e-014 4.68299e-014 6.12466e-015 -20.9341 9.38183 -0.0023633 2.96914 -1.16975 -4.81411 -0.00862951 -2.07227 0.290562 1.25741e-010 5.18841e-011 3.35086e-010 2.15658e-010 8.85415e-011 5.78074e-010 1.25735e-010 5.18867e-011 3.35099e-010 -7.73091 5.47488 -0.417314 1.2574e-010 5.18857e-011 3.35091e-010 -2.90554 0.965183 -0.102902 1.25731e-010 5.18846e-011 3.35095e-010 -10.2786 0.731801 -0.0259123 1.25743e-010 5.18843e-011 3.35092e-010 -2.22167 -0.733487 0.20892 -2.03217e-016 0 -3.88251e-019 2.31312 -6.7596 2.64645 0.00663704 8.76581 0.149081 -0.96592 -5.77947 -5.10754 2.03217e-016 0 3.88251e-019 2.0429 -1.57468 -0.302957 0.00640356 -1.76809 0.0421508 0.448261 2.80188 -1.47663 
36.8176 85.0752 -175.607 -1.06542 2.11778 0.370576 1.34151 -5.00737 1.01313 0.0404821 2.0838 0.413543 0.158009 10.1911 -0.975898 2.80514 -16.2949 -1.22052 -0 0 0 -0 0 0 1.93595e-014 9.75582e-014 1.3213e-014 45.8138 7.48879 -6.14717 -5.53481 -2.17884 9.32277 -0.0233603 9.22187 1.29482 5.32404e-010 1.86252e-010 -5.40075e-010 9.12612e-010 3.25429e-010 -9.37158e-010 5.32408e-010 1.86264e-010 -5.4009e-010 7.73091 5.47488 0.417314 5.32399e-010 1.86264e-010 -5.40081e-010 2.90554 0.965183 0.102902 5.32412e-010 1.86265e-010 -5.40081e-010 10.2786 0.731801 0.0259123 5.32408e-010 1.86263e-010 -5.40078e-010 2.22167 -0.733487 -0.20892 1.92992e-014 9.75595e-014 1.30608e-014 -43.0715 19.3102 -0.00195943 5.89988 -2.38158 -9.91767 0.00528277 -4.28788 0.602528 -2.33182e-010 1.02217e-010 6.9616e-010 -4.05806e-010 1.74262e-010 1.20097e-009 -2.33187e-010 1.02218e-010 6.96166e-010 -7.73091 5.47488 -0.417314 -2.33182e-010 1.0222e-010 6.96163e-010 -2.90554 0.965183 -0.102902 -2.33189e-010 1.02218e-010 6.96165e-010 -10.2786 0.731801 -0.0259123 -2.33181e-010 1.02217e-010 6.96158e-010 -2.22167 -0.733487 0.20892 -2.03217e-016 0 -3.88251e-019 2.30945 -5.64721 5.6724 0.00801095 8.98188 0.16297 -2.40013 -10.9418 -10.7002 2.03217e-016 0 3.88251e-019 2.95629 -1.20171 -0.620008 0.00393142 -1.44025 0.00753422 0.318992 1.53409 -2.88332 
36.8112 85.0762 -175.605 -0.780269 3.08285 0.530817 0.984685 -7.29781 1.46273 -0.233729 3.03392 0.556724 0.354641 14.8514 -1.4381 3.83301 -23.7561 -1.84609 -0 0 0 -0 0 0 6.22864e-015 1.40859e-013 1.88838e-014 67.3592 10.8268 -9.05526 -7.83504 -3.12918 13.6048 -0.177051 13.4414 1.91593 5.68193e-010 2.70747e-010 -7.74583e-010 9.71485e-010 4.73038e-010 -1.3442e-009 5.68195e-010 2.70761e-010 -7.74597e-010 7.73091 5.47488 0.417314 5.68185e-010 2.70763e-010 -7.74589e-010 2.90554 0.965183 0.102902 5.68198e-010 2.70764e-010 -7.74587e-010 10.2786 0.731801 0.0259123 5.68199e-010 2.70763e-010 -7.74582e-010 2.22167 -0.733487 -0.20892 6.13912e-015 1.4086e-013 1.87716e-014 -62.7997 28.1455 -0.00793313 8.32376 -3.4103 -14.4655 0.0374806 -6.21616 0.876269 -5.45679e-010 1.59357e-010 1.00767e-009 -9.46848e-010 2.72017e-010 1.73837e-009 -5.45682e-010 1.59357e-010 1.00767e-009 -7.73091 5.47488 -0.417314 -5.45678e-010 1.59361e-010 1.00767e-009 -2.90554 0.965183 -0.102902 -5.45683e-010 1.59358e-010 1.00767e-009 -10.2786 0.731801 -0.0259123 -5.45678e-010 1.59357e-010 1.00766e-009 -2.22167 -0.733487 0.20892 -2.03217e-016 0 -3.88251e-019 2.20329 -4.64717 8.35604 0.00917269 9.17819 0.175471 -4.55469 -15.2945 -15.9146 2.03217e-016 0 3.88251e-019 3.7709 -0.866825 -0.903535 0.00210279 -1.1471 -0.0234085 0.151128 0.410384 -4.14441 
36.8066 85.0722 -175.612 -0.575914 3.74693 0.660279 0.747349 -8.88172 1.80485 -0.438862 3.69325 0.66446 0.551828 18.0677 -1.73624 4.42732 -28.9481 -2.2656 -0 0 0 -0 0 0 -3.67355e-015 1.65586e-013 2.15184e-014 82.5895 13.0228 -11.1511 -9.3502 -3.75912 16.5897 -0.340283 16.368 2.36574 6.05035e-010 3.23427e-010 -8.92651e-010 1.03379e-009 5.65035e-010 -1.54964e-009 6.05035e-010 3.23443e-010 -8.92664e-010 7.73091 5.47488 0.417314 6.05025e-010 3.23445e-010 -8.92658e-010 2.90554 0.965183 0.102902 6.05037e-010 3.23447e-010 -8.92654e-010 10.2786 0.731801 0.0259123 6.0504e-010 3.23446e-010 -8.92648e-010 2.22167 -0.733487 -0.20892 -3.78113e-015 1.65588e-013 2.1419e-014 -76.5014 34.2484 -0.0317102 9.89333 -4.07679 -17.6016 0.0681302 -7.42679 1.04971 -7.4211e-010 2.33516e-010 1.19527e-009 -1.28683e-009 3.99863e-010 2.06203e-009 -7.42112e-010 2.33516e-010 1.19526e-009 -7.73091 5.47488 -0.417314 -7.42109e-010 2.3352e-010 1.19527e-009 -2.90554 0.965183 -0.102902 -7.42113e-010 2.33516e-010 1.19526e-009 -10.2786 0.731801 -0.0259123 -7.42108e-010 2.33516e-010 1.19525e-009 -2.22167 -0.733487 0.20892 -2.03217e-016 0 -3.88251e-019 2.06205 -3.94052 10.2035 0.0100013 9.32508 0.184468 -6.54393 -18.1077 -19.7121 2.03217e-016 0 3.88251e-019 4.33076 -0.627172 -1.10338 0.00113482 -0.940667 -0.0451872 0.00457701 -0.356216 -5.04288 
